<?xml version="1.0" encoding="UTF-8" standalone="no"?>
<!DOCTYPE svg PUBLIC "-//W3C//DTD SVG 1.1//EN"
 "http://www.w3.org/Graphics/SVG/1.1/DTD/svg11.dtd">
<!-- Generated by graphviz version 2.40.1 (20161225.0304)
 -->
<!-- Title: records Pages: 1 -->
<svg width="146pt" height="188pt"
 viewBox="0.00 0.00 145.92 188.00" xmlns="http://www.w3.org/2000/svg" xmlns:xlink="http://www.w3.org/1999/xlink">
<g id="graph0" class="graph" transform="scale(1 1) rotate(0) translate(4 184)">
<title>records</title>
<polygon fill="#ffffff" stroke="transparent" points="-4,4 -4,-184 141.9244,-184 141.9244,4 -4,4"/>
<!-- None -->
<g id="node1" class="node">
<title>None</title>
<ellipse fill="none" stroke="#000000" cx="68.9622" cy="-18" rx="31.9031" ry="18"/>
<text text-anchor="middle" x="68.9622" y="-13.8" font-family="Times,serif" font-size="14.00" fill="#000000">None</text>
</g>
<!-- { x } -->
<g id="node2" class="node">
<title>{ x }</title>
<ellipse fill="none" stroke="#000000" cx="29.9622" cy="-90" rx="29.9244" ry="18"/>
<text text-anchor="middle" x="29.9622" y="-85.8" font-family="Times,serif" font-size="14.00" fill="#000000">{ x }</text>
</g>
<!-- None&#45;&gt;{ x } -->
<g id="edge1" class="edge">
<title>None&#45;&gt;{ x }</title>
<path fill="none" stroke="#000000" d="M59.5214,-35.4292C54.9225,-43.9193 49.2958,-54.3071 44.1904,-63.7326"/>
<polygon fill="#000000" stroke="#000000" points="41.0014,-62.2714 39.3161,-72.7313 47.1565,-65.6054 41.0014,-62.2714"/>
</g>
<!-- { y } -->
<g id="node3" class="node">
<title>{ y }</title>
<ellipse fill="none" stroke="#000000" cx="107.9622" cy="-90" rx="29.9244" ry="18"/>
<text text-anchor="middle" x="107.9622" y="-85.8" font-family="Times,serif" font-size="14.00" fill="#000000">{ y }</text>
</g>
<!-- None&#45;&gt;{ y } -->
<g id="edge2" class="edge">
<title>None&#45;&gt;{ y }</title>
<path fill="none" stroke="#000000" d="M78.403,-35.4292C83.0018,-43.9193 88.6286,-54.3071 93.734,-63.7326"/>
<polygon fill="#000000" stroke="#000000" points="90.7679,-65.6054 98.6083,-72.7313 96.923,-62.2714 90.7679,-65.6054"/>
</g>
<!-- { x, y } -->
<g id="node4" class="node">
<title>{ x, y }</title>
<ellipse fill="none" stroke="#000000" cx="68.9622" cy="-162" rx="39.7386" ry="18"/>
<text text-anchor="middle" x="68.9622" y="-157.8" font-family="Times,serif" font-size="14.00" fill="#000000">{ x, y }</text>
</g>
<!-- { x }&#45;&gt;{ x, y } -->
<g id="edge3" class="edge">
<title>{ x }&#45;&gt;{ x, y }</title>
<path fill="none" stroke="#000000" d="M39.403,-107.4292C43.968,-115.8569 49.5459,-126.1545 54.6213,-135.5245"/>
<polygon fill="#000000" stroke="#000000" points="51.6327,-137.3558 59.4731,-144.4818 57.7878,-134.0218 51.6327,-137.3558"/>
</g>
<!-- { y }&#45;&gt;{ x, y } -->
<g id="edge4" class="edge">
<title>{ y }&#45;&gt;{ x, y }</title>
<path fill="none" stroke="#000000" d="M98.5214,-107.4292C93.9564,-115.8569 88.3785,-126.1545 83.3031,-135.5245"/>
<polygon fill="#000000" stroke="#000000" points="80.1366,-134.0218 78.4512,-144.4818 86.2916,-137.3558 80.1366,-134.0218"/>
</g>
</g>
</svg>