<?xml version="1.0" encoding="UTF-8" standalone="no"?>
<!DOCTYPE svg PUBLIC "-//W3C//DTD SVG 1.1//EN"
 "http://www.w3.org/Graphics/SVG/1.1/DTD/svg11.dtd">
<!-- Generated by graphviz version 2.40.1 (20161225.0304)
 -->
<!-- Title: types Pages: 1 -->
<svg width="150pt" height="116pt"
 viewBox="0.00 0.00 149.64 116.00" xmlns="http://www.w3.org/2000/svg" xmlns:xlink="http://www.w3.org/1999/xlink">
<g id="graph0" class="graph" transform="scale(1 1) rotate(0) translate(4 112)">
<title>types</title>
<polygon fill="#ffffff" stroke="transparent" points="-4,4 -4,-112 145.6439,-112 145.6439,4 -4,4"/>
<!-- Int -->
<g id="node1" class="node">
<title>Int</title>
<ellipse fill="none" stroke="#000000" cx="27" cy="-18" rx="27" ry="18"/>
<text text-anchor="middle" x="27" y="-13.8" font-family="Times,serif" font-size="14.00" fill="#000000">Int</text>
</g>
<!-- Int | String -->
<g id="node2" class="node">
<title>Int | String</title>
<ellipse fill="none" stroke="#000000" cx="67" cy="-90" rx="52.2597" ry="18"/>
<text text-anchor="middle" x="67" y="-85.8" font-family="Times,serif" font-size="14.00" fill="#000000">Int | String</text>
</g>
<!-- Int&#45;&gt;Int | String -->
<g id="edge1" class="edge">
<title>Int&#45;&gt;Int | String</title>
<path fill="none" stroke="#000000" d="M36.4794,-35.063C41.1577,-43.4839 46.9096,-53.8373 52.1541,-63.2774"/>
<polygon fill="#000000" stroke="#000000" points="49.2548,-65.2658 57.1709,-72.3076 55.374,-61.8662 49.2548,-65.2658"/>
</g>
<!-- String -->
<g id="node3" class="node">
<title>String</title>
<ellipse fill="none" stroke="#000000" cx="107" cy="-18" rx="34.7883" ry="18"/>
<text text-anchor="middle" x="107" y="-13.8" font-family="Times,serif" font-size="14.00" fill="#000000">String</text>
</g>
<!-- String&#45;&gt;Int | String -->
<g id="edge2" class="edge">
<title>String&#45;&gt;Int | String</title>
<path fill="none" stroke="#000000" d="M97.3171,-35.4292C92.6697,-43.7945 86.9989,-54.002 81.8244,-63.3161"/>
<polygon fill="#000000" stroke="#000000" points="78.6685,-61.7898 76.8716,-72.2311 84.7876,-65.1893 78.6685,-61.7898"/>
</g>
</g>
</svg>