<?xml version="1.0" encoding="UTF-8" standalone="no"?>
<!DOCTYPE svg PUBLIC "-//W3C//DTD SVG 1.1//EN"
 "http://www.w3.org/Graphics/SVG/1.1/DTD/svg11.dtd">
<!-- Generated by graphviz version 2.40.1 (20161225.0304)
 -->
<!-- Title: types Pages: 1 -->
<svg width="234pt" height="188pt"
 viewBox="0.00 0.00 234.45 188.00" xmlns="http://www.w3.org/2000/svg" xmlns:xlink="http://www.w3.org/1999/xlink">
<g id="graph0" class="graph" transform="scale(1 1) rotate(0) translate(4 184)">
<title>types</title>
<polygon fill="#ffffff" stroke="transparent" points="-4,4 -4,-184 230.4545,-184 230.4545,4 -4,4"/>
<!-- None -->
<g id="node1" class="node">
<title>None</title>
<ellipse fill="none" stroke="#000000" cx="106.787" cy="-18" rx="31.9031" ry="18"/>
<text text-anchor="middle" x="106.787" y="-13.8" font-family="Times,serif" font-size="14.00" fill="#000000">None</text>
</g>
<!-- { x: Int } -->
<g id="node2" class="node">
<title>{ x: Int }</title>
<ellipse fill="none" stroke="#000000" cx="45.787" cy="-90" rx="45.575" ry="18"/>
<text text-anchor="middle" x="45.787" y="-85.8" font-family="Times,serif" font-size="14.00" fill="#000000">{ x: Int }</text>
</g>
<!-- None&#45;&gt;{ x: Int } -->
<g id="edge1" class="edge">
<title>None&#45;&gt;{ x: Int }</title>
<path fill="none" stroke="#000000" d="M92.9452,-34.3379C85.2898,-43.3737 75.6148,-54.7934 67.0233,-64.9342"/>
<polygon fill="#000000" stroke="#000000" points="64.2185,-62.8304 60.4247,-72.7227 69.5594,-67.3553 64.2185,-62.8304"/>
</g>
<!-- { y: String } -->
<g id="node3" class="node">
<title>{ y: String }</title>
<ellipse fill="none" stroke="#000000" cx="167.787" cy="-90" rx="58.8354" ry="18"/>
<text text-anchor="middle" x="167.787" y="-85.8" font-family="Times,serif" font-size="14.00" fill="#000000">{ y: String }</text>
</g>
<!-- None&#45;&gt;{ y: String } -->
<g id="edge2" class="edge">
<title>None&#45;&gt;{ y: String }</title>
<path fill="none" stroke="#000000" d="M120.6289,-34.3379C128.2287,-43.3082 137.8191,-54.628 146.3638,-64.7135"/>
<polygon fill="#000000" stroke="#000000" points="143.7996,-67.1014 152.9342,-72.4688 149.1405,-62.5765 143.7996,-67.1014"/>
</g>
<!-- { x: Int, y: String } -->
<g id="node4" class="node">
<title>{ x: Int, y: String }</title>
<ellipse fill="none" stroke="#000000" cx="106.787" cy="-162" rx="84.2987" ry="18"/>
<text text-anchor="middle" x="106.787" y="-157.8" font-family="Times,serif" font-size="14.00" fill="#000000">{ x: Int, y: String }</text>
</g>
<!-- { x: Int }&#45;&gt;{ x: Int, y: String } -->
<g id="edge3" class="edge">
<title>{ x: Int }&#45;&gt;{ x: Int, y: String }</title>
<path fill="none" stroke="#000000" d="M60.5534,-107.4292C67.936,-116.143 77.0121,-126.8559 85.1621,-136.4756"/>
<polygon fill="#000000" stroke="#000000" points="82.5982,-138.8637 91.7328,-144.2311 87.9391,-134.3388 82.5982,-138.8637"/>
</g>
<!-- { y: String }&#45;&gt;{ x: Int, y: String } -->
<g id="edge4" class="edge">
<title>{ y: String }&#45;&gt;{ x: Int, y: String }</title>
<path fill="none" stroke="#000000" d="M153.0206,-107.4292C145.6381,-116.143 136.5619,-126.8559 128.4119,-136.4756"/>
<polygon fill="#000000" stroke="#000000" points="125.635,-134.3388 121.8412,-144.2311 130.9759,-138.8637 125.635,-134.3388"/>
</g>
</g>
</svg>